<?xml version="1.0" encoding="UTF-8" standalone="no"?>
<!-- Created with Inkscape (http://www.inkscape.org/) -->

<svg
   width="16.0px"
   height="16.0px"
   viewBox="0 0 16.0 16.0"
   version="1.1"
   id="SVGRoot"
   sodipodi:docname="brat2.svg"
   inkscape:export-filename="brat.png"
   inkscape:export-xdpi="384"
   inkscape:export-ydpi="384"
   inkscape:version="1.2.2 (b0a84865, 2022-12-01)"
   xmlns:inkscape="http://www.inkscape.org/namespaces/inkscape"
   xmlns:sodipodi="http://sodipodi.sourceforge.net/DTD/sodipodi-0.dtd"
   xmlns="http://www.w3.org/2000/svg"
   xmlns:svg="http://www.w3.org/2000/svg">
  <sodipodi:namedview
     id="namedview2426"
     pagecolor="#ffffff"
     bordercolor="#000000"
     borderopacity="0.25"
     inkscape:showpageshadow="2"
     inkscape:pageopacity="0.0"
     inkscape:pagecheckerboard="0"
     inkscape:deskcolor="#d1d1d1"
     inkscape:document-units="px"
     showgrid="true"
     inkscape:zoom="64"
     inkscape:cx="8.6015625"
     inkscape:cy="8.328125"
     inkscape:window-width="2560"
     inkscape:window-height="1312"
     inkscape:window-x="0"
     inkscape:window-y="25"
     inkscape:window-maximized="1"
     inkscape:current-layer="layer1">
    <inkscape:grid
       type="xygrid"
       id="grid2432" />
  </sodipodi:namedview>
  <defs
     id="defs2421" />
  <g
     inkscape:label="Layer 1"
     inkscape:groupmode="layer"
     id="layer1">
    <g
       aria-label="b"
       id="text219-5-7"
       style="fill:#d96e26;stroke-width:0.22427441;stroke:none;stroke-opacity:1;stroke-linecap:butt;paint-order:normal;stroke-dasharray:none">
      <path
         d="m 7.538976,11.182413 c 0.5046288,0.231288 1.0933624,0.378471 2.0710806,0.378471 1.9764624,0 3.0382854,-1.377216 3.0382854,-3.1854689 0,-2.1867247 -0.998744,-2.9226417 -2.344421,-2.9226417 -0.4941155,0 -0.9251525,0.1682096 -1.1564407,0.3259061 H 9.1054279 V 3.4868238 H 7.538976 Z m 2.1867247,-0.883101 c -0.220775,0 -0.4205239,-0.02103 -0.5992466,-0.0841 V 7.0717908 c 0.1471834,-0.1682096 0.431037,-0.315393 0.7989955,-0.315393 0.6833514,0 1.1459284,0.420524 1.1459284,1.7451745 0,1.261572 -0.504629,1.7977397 -1.3456773,1.7977397 z"
         id="path3444"
         style="stroke:none;stroke-opacity:1;stroke-linecap:butt;paint-order:normal;stroke-width:0.22427441;stroke-dasharray:none" />
    </g>
    <path
       id="rect1726"
       style="fill:#d96e26;stroke-width:0.09592009;stroke:none;stroke-opacity:1;stroke-linecap:butt;paint-order:normal;stroke-dasharray:none"
       d="M 4.5351562 3.4550781 L 2.6074219 7.4726562 L 2.6074219 7.4746094 L 2.6054688 7.4746094 L 4.5273438 11.482422 L 6.2460938 11.482422 L 4.3242188 7.4765625 L 6.2519531 3.4550781 L 4.5351562 3.4550781 z " />
    <path
       id="rect1750"
       style="fill:#d96e26;fill-opacity:1;stroke-width:0.04456101;stroke:none;stroke-opacity:1;stroke-linecap:butt;paint-order:normal;stroke-dasharray:none"
       d="M 14.298828 3.4667969 L 14.298828 11.494141 L 15.869141 11.494141 L 15.869141 3.4667969 L 14.298828 3.4667969 z " />
  </g>
</svg>
